<?xml version="1.0" encoding="UTF-8"?>
<svg version="1.1" xmlns="http://www.w3.org/2000/svg" width="473" height="151">
<path d="M0 0 C0.80993408 0.00565979 1.61986816 0.01131958 2.4543457 0.01715088 C5.01186167 0.0393348 7.56791591 0.08949297 10.125 0.140625 C11.87107335 0.16071343 13.61716892 0.17896007 15.36328125 0.1953125 C19.61774075 0.23913995 23.87112357 0.30803779 28.125 0.390625 C32.03772361 19.14837077 35.94931376 37.90635255 39.85954285 56.66461849 C41.67502607 65.37377471 43.4908846 74.08285236 45.30761719 82.79174805 C46.89049325 90.37960721 48.47267479 97.9676108 50.05401134 105.55579096 C50.89186794 109.57619536 51.73007971 113.59652499 52.56912231 117.61668205 C53.35792565 121.39617928 54.14580423 125.17586807 54.9329567 128.95570946 C55.22286637 130.34699948 55.51312138 131.7382176 55.80373764 133.1293602 C56.19876856 135.02057368 56.59246637 136.91206547 56.98608398 138.80357361 C57.2073143 139.86455733 57.42854462 140.92554106 57.65647888 142.0186758 C58.125 144.390625 58.125 144.390625 58.125 145.390625 C46.245 145.390625 34.365 145.390625 22.125 145.390625 C18.125 128.390625 18.125 128.390625 18.125 124.390625 C2.615 124.720625 -12.895 125.050625 -28.875 125.390625 C-31.185 131.660625 -33.495 137.930625 -35.875 144.390625 C-36.875 145.390625 -36.875 145.390625 -40.66040039 145.50415039 C-42.34782729 145.50399122 -44.03525905 145.49829417 -45.72265625 145.48828125 C-47.05229652 145.48615883 -47.05229652 145.48615883 -48.40879822 145.48399353 C-51.25173254 145.47837715 -54.09458931 145.46582191 -56.9375 145.453125 C-58.86002491 145.44811211 -60.78255104 145.44354884 -62.70507812 145.43945312 C-67.42841549 145.42840241 -72.15169458 145.41112683 -76.875 145.390625 C-74.94380998 139.33823909 -72.75591172 133.46518515 -70.27734375 127.6171875 C-69.93123047 126.7929277 -69.58511719 125.96866791 -69.22851562 125.11943054 C-68.09290364 122.41686338 -66.95271059 119.71625483 -65.8125 117.015625 C-65.00625372 115.09934468 -64.20035181 113.18291944 -63.39477539 111.26635742 C-61.72146851 107.28592937 -60.04668164 103.30612847 -58.37109375 99.32666016 C-55.99874368 93.68899807 -53.63783007 88.04661327 -51.28125 82.40234375 C-47.20297053 72.63470359 -43.11340185 62.87185004 -39.0166626 53.11193848 C-37.84246291 50.31306827 -36.66992452 47.51350595 -35.49755859 44.71386719 C-33.54451224 40.05190816 -31.58450756 35.39292804 -29.61965942 30.7359314 C-28.88138632 28.98344584 -28.14523231 27.23006584 -27.41134644 25.47573853 C-26.39729688 23.05291403 -25.37541917 20.63353703 -24.3515625 18.21484375 C-24.05755051 17.50750092 -23.76353851 16.80015808 -23.46061707 16.07138062 C-20.56783941 9.28328015 -17.95103302 4.46916487 -11.12580299 1.21067333 C-7.40897276 -0.14350135 -3.9162788 -0.10527079 0 0 Z M0.125 43.390625 C-2.44072734 50.34983957 -5.00396202 57.30996841 -7.56542969 64.27075195 C-8.43789616 66.64075736 -9.31094232 69.01054946 -10.18457031 71.38012695 C-11.43705705 74.77760373 -12.68748656 78.17583135 -13.9375 81.57421875 C-14.33122803 82.64087265 -14.72495605 83.70752655 -15.13061523 84.8065033 C-15.49098877 85.78744461 -15.8513623 86.76838593 -16.22265625 87.77905273 C-16.70230835 89.08144142 -16.70230835 89.08144142 -17.19165039 90.41014099 C-17.92936193 92.19899981 -17.92936193 92.19899981 -17.875 93.390625 C-8.305 93.390625 1.265 93.390625 11.125 93.390625 C10.41286177 86.54147415 10.41286177 86.54147415 9.30883789 79.82055664 C9.15520279 79.04688248 9.00156769 78.27320831 8.84327698 77.47608948 C8.59794472 76.2755619 8.59794472 76.2755619 8.34765625 75.05078125 C8.17624619 74.20261337 8.00483612 73.3544455 7.82823181 72.48057556 C7.46807532 70.7062675 7.10579254 68.93238981 6.74145508 67.15893555 C6.18433989 64.43768932 5.63979372 61.71411085 5.09570312 58.99023438 C4.74294805 57.26026141 4.38945894 55.53043792 4.03515625 53.80078125 C3.87362564 52.98625992 3.71209503 52.17173859 3.54566956 51.33253479 C2.71629466 46.92595745 2.71629466 46.92595745 0.125 43.390625 Z " fill="#005AAC" transform="translate(403.875,2.609375)"/>
<path d="M0 0 C1.72974441 0.00015918 3.45949355 0.0058569 5.18920898 0.01586914 C6.09783188 0.01728409 7.00645477 0.01869904 7.94261169 0.02015686 C10.85687494 0.02577346 13.77106254 0.03832874 16.68530273 0.05102539 C18.65600475 0.05603825 20.62670797 0.06060153 22.59741211 0.06469727 C27.43923832 0.07574828 32.28100768 0.09302401 37.12280273 0.11352539 C34.70140822 9.30725769 30.99931875 17.8819811 27.29122925 26.61212158 C25.25697912 31.40236169 23.24023247 36.19998046 21.22045898 40.99633789 C20.80006851 41.99329681 20.37967804 42.99025574 19.94654846 44.01742554 C15.43040006 54.73550707 10.99184883 65.48525176 6.56030273 76.23852539 C4.98763013 80.05242815 3.41461206 83.86618837 1.84155273 87.67993164 C1.4544664 88.61856552 1.06738007 89.5571994 0.66856384 90.52427673 C-4.41023822 102.83596639 -9.51694721 115.13609464 -14.62353516 127.4362793 C-14.96352539 128.25552383 -15.30351563 129.07476837 -15.65380859 129.9188385 C-16.28348558 131.43607809 -16.91342915 132.95320708 -17.54370117 134.47019958 C-19.01232813 138.00914735 -20.45409629 141.55577294 -21.87719727 145.11352539 C-35.40719727 145.11352539 -48.93719727 145.11352539 -62.87719727 145.11352539 C-64.26551758 139.82579102 -65.65383789 134.53805664 -67.08422852 129.09008789 C-67.55737991 127.28803391 -68.03053131 125.48597992 -68.51802063 123.62931824 C-70.87709932 114.64420916 -73.2354836 105.65891841 -75.59277344 96.67333984 C-76.55212641 93.01667289 -77.51152375 89.36001758 -78.47094727 85.70336914 C-78.70783579 84.8004822 -78.94472431 83.89759525 -79.18879128 82.9673481 C-82.02427709 72.16093144 -84.86629888 61.3563039 -87.72094727 50.55493164 C-88.48190484 47.67037855 -89.24255639 44.78574503 -90.00302124 41.90106201 C-90.4587485 40.17549198 -90.91578836 38.45026805 -91.37417603 36.72540283 C-91.98905173 34.41159541 -92.59966793 32.09670635 -93.20922852 29.78149414 C-93.53640869 28.54681396 -93.86358887 27.31213379 -94.20068359 26.04003906 C-94.87719727 23.11352539 -94.87719727 23.11352539 -94.87719727 20.11352539 C-95.74086914 19.84926758 -96.60454102 19.58500977 -97.49438477 19.31274414 C-100.88179497 18.11189549 -103.83831168 16.6245733 -107.00219727 14.92602539 C-115.89441309 10.29182719 -125.37535464 7.24295223 -134.87719727 4.11352539 C-134.87719727 3.12352539 -134.87719727 2.13352539 -134.87719727 1.11352539 C-126.11476285 1.04391545 -117.3524241 0.99065848 -108.58977318 0.95808887 C-104.52060532 0.94245452 -100.45162709 0.9212573 -96.38256836 0.88720703 C-92.45330576 0.85453356 -88.52422519 0.8366556 -84.59483719 0.82889366 C-83.09816244 0.82336444 -81.6014973 0.81256715 -80.10490036 0.79633522 C-78.0032295 0.77445396 -75.90230415 0.77156281 -73.80053711 0.77294922 C-72.60584808 0.76628738 -71.41115906 0.75962555 -70.18026733 0.75276184 C-65.14093543 1.30316108 -61.90913085 3.1832896 -58.18188477 6.54321289 C-54.68514221 11.10600145 -54.04836503 16.71671752 -53.00219727 22.23852539 C-52.6371106 24.05102783 -52.6371106 24.05102783 -52.26464844 25.90014648 C-51.59525623 29.24605202 -50.94301648 32.59449513 -50.29766846 35.94506836 C-49.7131388 38.95960886 -49.11289297 41.9709497 -48.51293945 44.98245239 C-45.77504779 58.73603541 -43.06759366 72.48295924 -40.8631134 86.33389282 C-40.37439257 89.36329004 -39.84959751 92.19632466 -38.87719727 95.11352539 C-38.61347824 94.37834686 -38.34975922 93.64316833 -38.07804871 92.88571167 C-35.53662633 85.80149892 -32.9941604 78.71766184 -30.45064831 71.63419914 C-29.1444619 67.99647714 -27.83861808 64.35863309 -26.53369141 60.72045898 C-21.1907805 45.82521853 -15.83653563 30.93399221 -10.41100502 16.06860733 C-9.9251193 14.73643412 -9.44015218 13.40392548 -8.9561367 12.07107162 C-8.29105646 10.24063298 -7.62195645 8.41165636 -6.95263672 6.58276367 C-6.57460403 5.54677032 -6.19657135 4.51077698 -5.80708313 3.44338989 C-4.30477521 -0.32069991 -4.44230537 0.13007191 0 0 Z " fill="#005BAB" transform="translate(134.877197265625,2.886474609375)"/>
<path d="M0 0 C-0.46367916 11.19785165 -2.78431688 22.0432237 -5 33 C-6.09699219 32.65066406 -7.19398438 32.30132812 -8.32421875 31.94140625 C-9.77860238 31.48163336 -11.23303189 31.02200559 -12.6875 30.5625 C-13.40873047 30.33240234 -14.12996094 30.10230469 -14.87304688 29.86523438 C-26.86148763 26.08805441 -41.32529821 24.4698781 -53 30 C-55.33698094 31.9976535 -55.95404064 32.84899066 -56.875 35.875 C-57.02893555 39.72338875 -56.25842585 40.92075971 -54 44 C-51.43832191 45.97616842 -51.43832191 45.97616842 -48.375 47.6875 C-47.53424927 48.18842163 -47.53424927 48.18842163 -46.67651367 48.69946289 C-43.38215425 50.65334957 -40.04981073 52.53842339 -36.71484375 54.421875 C-23.32971871 62.03696002 -11.58678258 69.97716839 -6 85 C-3.17838481 96.52159535 -5.62574649 107.75319487 -11.12890625 118.046875 C-19.95980373 131.9845754 -35.3108091 139.43257683 -51 143 C-71.09368786 147.21690926 -94.11446861 145.32046977 -113 137 C-112.02638956 128.48949937 -110.92236545 120.01079018 -109.5 111.5625 C-109.38164795 110.82330322 -109.2632959 110.08410645 -109.14135742 109.32250977 C-108.83016444 107.5348907 -108.42361626 105.76436172 -108 104 C-107.01 103.505 -107.01 103.505 -106 103 C-104.21657978 103.84981769 -102.47257416 104.78277922 -100.75 105.75 C-87.74480535 112.38372918 -71.80046115 114.31693061 -57.44921875 111.23828125 C-52.64630352 109.62882754 -49.76777978 108.36392272 -47 104 C-45.80771292 100.76379221 -45.88007774 99.35227165 -47 96.0625 C-51.81518993 88.68924042 -59.16610146 85.07261525 -66.8125 81.125 C-79.56695194 74.3368811 -91.2699362 67.44156932 -96.39135742 53.18994141 C-97.41072941 49.52216493 -97.48889755 45.97541768 -97.4375 42.1875 C-97.42992676 41.40068848 -97.42235352 40.61387695 -97.41455078 39.80322266 C-97.12436929 29.49012996 -93.75791191 21.73276962 -87 14 C-86.54496094 13.41734375 -86.08992188 12.8346875 -85.62109375 12.234375 C-76.50616592 1.66772238 -61.20001254 -2.50347589 -48 -5 C-47.1440625 -5.16242187 -46.288125 -5.32484375 -45.40625 -5.4921875 C-30.30854694 -7.61207046 -14.3231798 -4.77439327 0 0 Z " fill="#005AAC" transform="translate(336,6)"/>
<path d="M0 0 C12.54 0 25.08 0 38 0 C36.87498456 13.50018532 36.87498456 13.50018532 36.0892334 18.31347656 C35.91260666 19.40961777 35.73597992 20.50575897 35.55400085 21.63511658 C35.36280167 22.79193436 35.17160248 23.94875214 34.97460938 25.140625 C34.77124466 26.39416275 34.56787994 27.6477005 34.35835266 28.93922424 C33.80678728 32.33813111 33.24951426 35.73607853 32.69102669 39.13385391 C32.10510422 42.70419877 31.52425445 46.27536913 30.94274902 49.84643555 C29.96739793 55.83156839 28.98855613 61.81612159 28.00732422 67.80029297 C26.8736949 74.71399569 25.74447775 81.62840716 24.61784315 88.54325294 C23.41504234 95.92555526 22.20964654 103.30743183 21.00316048 110.68913269 C20.65656548 112.81056902 20.31038887 114.93207331 19.96427917 117.05358887 C19.32009452 121.0009174 18.6729286 124.94775143 18.02539062 128.89453125 C17.83419144 130.06754288 17.64299225 131.2405545 17.44599915 132.44911194 C17.26937241 133.52269455 17.09274567 134.59627716 16.9107666 135.70239258 C16.75812599 136.63440994 16.60548538 137.56642731 16.4482193 138.52668762 C16.05393879 140.70236116 15.53627322 142.85490711 15 145 C2.13 145 -10.74 145 -24 145 C-19.51134555 116.45015321 -14.94938353 87.91276813 -10.33911133 59.38232422 C-9.56056633 54.56328485 -8.78401034 49.74393081 -8.0090332 44.92431641 C-7.05836899 39.01214073 -6.10453841 33.10048445 -5.14834023 27.18920135 C-4.78798985 24.95816661 -4.42875625 22.72695119 -4.07066917 20.49555206 C-3.57646226 17.41742874 -3.07818363 14.33999171 -2.57885742 11.26269531 C-2.43291641 10.34775803 -2.2869754 9.43282074 -2.13661194 8.49015808 C-2.00086761 7.65883865 -1.86512329 6.82751923 -1.7252655 5.9710083 C-1.60861636 5.24790089 -1.49196722 4.52479347 -1.37178326 3.77977371 C-1 2 -1 2 0 0 Z " fill="#005AAC" transform="translate(186,3)"/>
<path d="M0 0 C8.76243442 -0.06960994 17.52477316 -0.12286691 26.28742409 -0.15543652 C30.35659195 -0.17107087 34.42557017 -0.19226809 38.49462891 -0.22631836 C42.42389151 -0.25899183 46.35297207 -0.27686979 50.28236008 -0.28463173 C51.77903482 -0.29016095 53.27569997 -0.30095824 54.77229691 -0.31719017 C56.87396777 -0.33907143 58.97489312 -0.34196258 61.07666016 -0.34057617 C62.27134918 -0.34723801 63.46603821 -0.35389984 64.69692993 -0.36076355 C69.73626183 0.18963569 72.96806641 2.06976421 76.6953125 5.4296875 C80.19192619 9.99230791 80.82936279 15.60322673 81.875 21.125 C82.23573608 22.92227539 82.23573608 22.92227539 82.60375977 24.75585938 C83.1292913 27.3897037 83.64750678 30.02399524 84.15576172 32.66113281 C84.90222567 36.52242861 85.68138767 40.37653349 86.46740723 44.22994995 C87.13565183 47.51131509 87.79494407 50.79443503 88.45196533 54.07806396 C88.77485874 55.68871556 89.09984079 57.2989499 89.42694092 58.90875244 C89.88580662 61.17712185 90.33310546 63.44747682 90.77734375 65.71875 C90.98617943 66.73574478 90.98617943 66.73574478 91.19923401 67.77328491 C91.8436704 71.13179356 92.21213128 73.7512212 91 77 C90.52691406 75.99582031 90.05382812 74.99164063 89.56640625 73.95703125 C72.56819674 38.5226709 45.16719702 19.15581792 9 6 C6.00891402 4.9718142 3.00932201 3.97344556 0 3 C0 2.01 0 1.02 0 0 Z " fill="#F5AB1D" transform="translate(0,4)"/>
</svg>
